<?xml version="1.0" encoding="UTF-8" standalone="no"?>
<!-- Created with Inkscape (http://www.inkscape.org/) -->

<svg
   width="512"
   height="512"
   viewBox="0 0 512 512"
   version="1.1"
   id="svg1"
   inkscape:version="1.4.2 (ebf0e940d0, 2025-05-08)"
   sodipodi:docname="tarf-logo.svg"
   xmlns:inkscape="http://www.inkscape.org/namespaces/inkscape"
   xmlns:sodipodi="http://sodipodi.sourceforge.net/DTD/sodipodi-0.dtd"
   xmlns:xlink="http://www.w3.org/1999/xlink"
   xmlns="http://www.w3.org/2000/svg"
   xmlns:svg="http://www.w3.org/2000/svg"
   xmlns:rdf="http://www.w3.org/1999/02/22-rdf-syntax-ns#"
   xmlns:cc="http://creativecommons.org/ns#"
   xmlns:dc="http://purl.org/dc/elements/1.1/">
  <title
     id="title1">tarf-logo</title>
  <sodipodi:namedview
     id="namedview1"
     pagecolor="#505050"
     bordercolor="#eeeeee"
     borderopacity="1"
     inkscape:showpageshadow="0"
     inkscape:pageopacity="0"
     inkscape:pagecheckerboard="0"
     inkscape:deskcolor="#505050"
     inkscape:document-units="px"
     inkscape:zoom="0.70710678"
     inkscape:cx="91.216775"
     inkscape:cy="318.19805"
     inkscape:window-width="1920"
     inkscape:window-height="1080"
     inkscape:window-x="0"
     inkscape:window-y="0"
     inkscape:window-maximized="1"
     inkscape:current-layer="text1"
     showgrid="false" />
  <defs
     id="defs1">
    <inkscape:path-effect
       effect="fillet_chamfer"
       id="path-effect1"
       is_visible="true"
       lpeversion="1"
       nodesatellites_param="F,0,0,1,0,80,0,1 @ F,0,0,1,0,80,0,1 @ F,0,0,1,0,80,0,1 @ F,0,0,1,0,80,0,1"
       radius="80"
       unit="px"
       method="auto"
       mode="F"
       chamfer_steps="1"
       flexible="false"
       use_knot_distance="true"
       apply_no_radius="true"
       apply_with_radius="true"
       only_selected="false"
       hide_knots="false" />
    <linearGradient
       id="swatch11"
       inkscape:swatch="solid">
      <stop
         style="stop-color:#ed2734;stop-opacity:1;"
         offset="0"
         id="stop12" />
    </linearGradient>
    <linearGradient
       id="linearGradient4"
       inkscape:collect="always">
      <stop
         style="stop-color:#000000;stop-opacity:1;"
         offset="0"
         id="stop4" />
      <stop
         style="stop-color:#000000;stop-opacity:0;"
         offset="1"
         id="stop5" />
    </linearGradient>
    <rect
       x="164.29346"
       y="228.22353"
       width="549.59625"
       height="430.86142"
       id="rect2" />
    <radialGradient
       inkscape:collect="always"
       xlink:href="#linearGradient4"
       id="radialGradient5"
       cx="105"
       cy="148.5"
       fx="105"
       fy="148.5"
       r="99.800224"
       gradientTransform="matrix(2.5637988,0,0,2.5637987,-13.198899,-124.72412)"
       gradientUnits="userSpaceOnUse" />
  </defs>
  <metadata
     id="metadata1">
    <rdf:RDF>
      <cc:Work
         rdf:about="">
        <dc:title>tarf-logo</dc:title>
        <dc:creator>
          <cc:Agent>
            <dc:title>Krishna Kushwaha</dc:title>
          </cc:Agent>
        </dc:creator>
      </cc:Work>
    </rdf:RDF>
  </metadata>
  <path
     style="display:inline;fill:#fdc50d;fill-opacity:1;stroke:url(#radialGradient5);stroke-width:0.264582"
     id="rect5"
     width="511.73541"
     height="511.73541"
     x="0.1322937"
     y="0.1322937"
     ry="0"
     rx="0"
     inkscape:label="bg"
     inkscape:path-effect="#path-effect1"
     sodipodi:type="rect"
     d="M 80.132294,0.1322937 H 431.86771 a 80,80 45 0 1 80,80.0000003 V 431.86771 a 80,80 135 0 1 -80,80 H 80.132294 a 80,80 45 0 1 -80.0000003,-80 V 80.132294 A 80,80 135 0 1 80.132294,0.1322937 Z"
     sodipodi:insensitive="true" />
  <g
     inkscape:groupmode="layer"
     id="text1"
     inkscape:label="main">
    <path
       id="path1"
       style="font-weight:bold;font-size:226.667px;line-height:0.8;font-family:'Balsamiq Sans';-inkscape-font-specification:'Balsamiq Sans, Bold';font-variation-settings:'wght' 800;letter-spacing:15px;writing-mode:vertical-lr;fill:#ffffff"
       d="m 428.44015,337.91717 v 0 c 4.23111,0 7.85778,-1.28445 10.88001,-3.85334 3.17334,-2.56889 4.83557,-6.12001 4.98668,-10.65335 l 0.22666,-8.61335 c 0.45334,-13.60002 0.68001,-25.99115 0.68001,-37.17339 0,-4.83556 -0.15111,-12.99557 -0.45334,-24.48003 h 8.38668 c 5.13779,0 9.14224,-1.51111 12.01335,-4.53334 3.02223,-3.17334 4.53334,-6.95112 4.53334,-11.33335 0,-4.23112 -1.36,-7.85779 -4.08,-10.88002 -2.72001,-3.02223 -6.57335,-4.6089 -11.56002,-4.76001 l -11.33335,-0.22666 v -0.45334 c 0,-2.11556 -0.0756,-4.00445 -0.22667,-5.66667 -0.15111,-1.66223 -0.15111,-3.02223 0,-4.08001 0.45333,-4.53334 3.09778,-6.80001 7.93335,-6.80001 2.87111,0 6.12001,0.75556 9.74668,2.26667 3.32445,1.20889 5.96889,1.81334 7.93334,1.81334 3.62667,0 6.6489,-1.36 9.06668,-4.08001 2.41779,-2.87111 3.62668,-6.12001 3.62668,-9.74668 0,-6.95112 -3.47556,-12.16446 -10.42669,-15.64003 -6.95112,-3.62667 -15.41335,-5.44 -25.3867,-5.44 -10.57779,0.30222 -18.81336,3.62667 -24.7067,9.97334 -5.89335,6.19557 -8.84002,14.96003 -8.84002,26.29338 v 12.46668 h -3.17334 c -3.62667,0 -6.57334,1.51111 -8.84001,4.53334 -2.26667,2.87112 -3.4,6.80002 -3.4,11.78669 0,4.23111 1.28444,7.70667 3.85333,10.42668 2.56889,2.72001 6.12001,4.08001 10.65335,4.08001 h 2.72001 c 0.15111,4.53334 0.22666,11.03113 0.22666,19.49336 0,12.39113 -0.22667,25.84004 -0.68,40.34673 l -0.22666,8.16001 c -0.15111,5.28889 1.36,9.44445 4.53334,12.46668 3.17333,2.87112 6.95112,4.30668 11.33335,4.30668 z m -112.69362,0.0459 c -5.74223,0 -10.12446,-1.51111 -13.14669,-4.53334 -3.02223,-3.02223 -4.53334,-7.3289 -4.53334,-12.92002 v -80.46678 c 0,-5.59112 1.43556,-9.82224 4.30667,-12.69336 3.02223,-3.02223 7.17779,-4.53334 12.46669,-4.53334 5.44001,0 9.59557,1.51111 12.46668,4.53334 2.87112,2.87112 4.30668,7.10224 4.30668,12.69336 v 11.78668 h -2.26667 c 1.81333,-9.06668 5.81778,-16.09336 12.01335,-21.08003 6.19557,-4.98667 14.20447,-7.78223 24.0267,-8.38668 3.77779,-0.30222 6.6489,0.68 8.61335,2.94667 2.11556,2.11556 3.24889,5.66668 3.4,10.65335 0.30223,4.68445 -0.68,8.38668 -2.94667,11.10668 -2.11556,2.72001 -5.74223,4.38223 -10.88001,4.98668 l -5.21335,0.45333 c -8.61335,0.75556 -15.03558,3.2489 -19.26669,7.48001 -4.08001,4.23112 -6.12001,10.35113 -6.12001,18.36003 v 42.16006 c 0,5.59112 -1.51111,9.89779 -4.53334,12.92002 -2.87111,3.02223 -7.10223,4.53334 -12.69335,4.53334 z m -119.49335,0.1808 v 0 c 5.89334,-0.30222 11.78668,-1.66222 17.68002,-4.08 4.98668,-1.96445 9.2178,-5.06223 12.69336,-9.29335 1.20889,4.98667 3.17333,8.46223 5.89334,10.42668 2.87111,1.81334 6.04445,2.64445 9.52001,2.49334 4.23112,-0.15111 7.63113,-1.73778 10.20002,-4.76001 2.72001,-3.17333 4.38223,-6.95112 4.98667,-11.33335 0.30223,-2.11556 0.45334,-4.38223 0.45334,-6.80001 -0.15111,-2.26667 -0.37778,-7.17778 -0.68,-14.73335 L 256.5466,287.8238 c -0.45333,-16.0178 -0.83111,-27.35115 -1.13333,-34.00005 l -1.58667,-15.64003 c -0.45333,-3.92889 -2.19111,-7.25334 -5.21334,-9.97334 -2.87112,-2.72001 -6.19557,-4.08001 -9.97335,-4.08001 l -2.26667,0.22667 h -1.13334 c -3.32445,-2.26667 -6.72445,-3.85334 -10.20001,-4.76001 -5.2889,-1.20889 -10.20002,-1.81334 -14.73336,-1.81334 -12.54224,0 -23.72448,3.85334 -33.54671,11.56002 -9.82224,7.70668 -17.45336,17.83114 -22.89337,30.37338 -3.92889,8.91557 -5.89334,18.43558 -5.89334,28.56004 0,4.38223 0.45333,8.91557 1.36,13.60002 1.20889,7.10223 4.38222,13.67558 9.52001,19.72003 5.2889,5.89335 11.86224,10.35113 19.72003,13.37336 6.34668,2.11555 12.24002,3.17333 17.68003,3.17333 z m 0.22667,-31.96004 v 0 c -1.96445,0 -4.08001,-0.37778 -6.34668,-1.13334 -7.25335,-2.56889 -10.88002,-7.93335 -10.88002,-16.09336 0,-4.68445 1.20889,-9.97334 3.62667,-15.86669 3.02223,-7.55557 7.02669,-13.44891 12.01336,-17.68002 5.13778,-4.23112 10.42668,-6.34668 15.86669,-6.34668 1.36,0 3.24889,0.30222 5.66667,0.90667 l 2.04001,1.36 3.17333,2.49334 2.26667,1.58667 c 0.75556,8.76445 1.13334,19.49336 1.13334,32.18671 -1.20889,0.45333 -2.26667,1.20889 -3.17334,2.26667 l -3.85334,5.44001 -3.4,3.17334 c -1.51111,1.51111 -2.87112,2.64445 -4.08001,3.4 -4.83556,2.87112 -9.52001,4.30668 -14.05335,4.30668 z m -95.46664,32.23258 c -10.426683,0 -19.191141,-1.73778 -26.293374,-5.21334 -6.951121,-3.47557 -12.164462,-8.5378 -15.640023,-15.18669 -3.324449,-6.6489 -4.986674,-15.03558 -4.986674,-25.16004 v -42.6134 h -9.520015 c -4.231117,0 -7.555567,-1.13333 -9.973348,-3.4 -2.26667,-2.26667 -3.400005,-5.36446 -3.400005,-9.29335 0,-4.23112 1.133335,-7.40446 3.400005,-9.52002 2.417781,-2.26667 5.742231,-3.4 9.973348,-3.4 h 9.520015 v -17.22669 c 0,-5.74223 1.511113,-10.04891 4.53334,-12.92002 3.022227,-3.02223 7.253344,-4.53334 12.693352,-4.53334 5.59112,0 9.822238,1.51111 12.693353,4.53334 2.871115,2.87111 4.306673,7.17779 4.306673,12.92002 v 17.22669 h 21.533363 c 4.23112,0 7.48001,1.13333 9.74668,3.4 2.26667,2.11556 3.40001,5.2889 3.40001,9.52002 0,3.92889 -1.13334,7.02668 -3.40001,9.29335 -2.26667,2.26667 -5.51556,3.4 -9.74668,3.4 H 88.319857 v 41.2534 c 0,6.34667 1.435558,11.10668 4.306673,14.28002 3.022227,3.17334 7.78223,4.76001 14.28002,4.76001 2.26667,0 4.38223,-0.22667 6.34668,-0.68001 1.96445,-0.45333 3.77778,-0.75555 5.44001,-0.90666 2.11555,-0.15111 3.85333,0.52889 5.21334,2.04 1.36,1.36 2.04,4.45778 2.04,9.29335 0,3.62667 -0.60444,6.8 -1.81333,9.52001 -1.20889,2.72001 -3.32445,4.68445 -6.34668,5.89334 -1.96445,0.75556 -4.68445,1.36001 -8.16001,1.81334 -3.32445,0.60445 -6.19557,0.90667 -8.61335,0.90667 z"
       sodipodi:nodetypes="sscccscscssccsscscscscccscscssscscccssssssscsccscccccccsscsssccccccccccccccccsscscccssscsccscccccccccssccscscscscscscscscssscscssccssccs" />
  </g>
</svg>
